<?xml version="1.0" standalone="no"?>
<!DOCTYPE svg PUBLIC "-//W3C//DTD SVG 20010904//EN"
 "http://www.w3.org/TR/2001/REC-SVG-20010904/DTD/svg10.dtd">
<svg version="1.0" xmlns="http://www.w3.org/2000/svg"
 width="230.000000pt" height="230.000000pt" viewBox="0 0 230.000000 230.000000"
 preserveAspectRatio="xMidYMid meet">
<metadata>
Created by potrace 1.14, written by Peter Selinger 2001-2017
</metadata>
<g transform="translate(0.000000,230.000000) scale(0.100000,-0.100000)"
fill="#000000" stroke="none">
<path d="M90 1450 l0 -630 485 0 485 0 0 -255 0 -255 145 0 145 0 0 260 0 260
285 0 285 0 0 -260 0 -260 145 0 145 0 0 630 0 630 -145 0 -145 0 0 -250 0
-250 -285 0 -285 0 0 250 0 250 -145 0 -145 0 -2 -257 -3 -258 -337 -3 -338
-2 0 150 0 150 290 0 290 0 0 110 0 110 -290 0 -290 0 0 140 0 140 330 0 330
0 0 115 0 115 -475 0 -475 0 0 -630z"/>
</g>
</svg>
